<!DOCTYPE svg PUBLIC "-//W3C//DTD SVG 20010904//EN" "http://www.w3.org/TR/2001/REC-SVG-20010904/DTD/svg10.dtd">
<svg version="1.0" xmlns="http://www.w3.org/2000/svg" width="1000px" height="1000px" viewBox="0 0 10000 10000" preserveAspectRatio="xMidYMid meet">
<g id="layer101" fill="#373940" stroke="none">
 <path d="M2935 9398 c-32 -17 -76 -61 -91 -90 -8 -15 -21 -96 -29 -180 -9 -84 -18 -160 -20 -168 -3 -8 -38 -25 -80 -38 -42 -12 -122 -45 -179 -72 -57 -28 -107 -50 -112 -50 -5 0 -63 43 -129 96 -66 53 -130 100 -143 105 -45 18 -154 11 -192 -12 -19 -12 -116 -103 -215 -203 -194 -195 -205 -211 -205 -311 0 -61 29 -119 115 -226 109 -136 104 -118 62 -207 -19 -42 -53 -119 -74 -171 -21 -51 -42 -95 -48 -96 -33 -8 -199 -35 -250 -40 -85 -9 -140 -38 -170 -89 l-25 -43 0 -310 c0 -307 0 -310 23 -344 38 -57 89 -78 233 -94 206 -23 186 -14 210 -97 12 -40 43 -122 69 -183 26 -60 49 -117 51 -125 3 -9 -30 -58 -77 -115 -95 -116 -118 -161 -119 -230 0 -102 8 -115 198 -308 98 -98 194 -188 216 -199 49 -25 129 -33 183 -19 28 8 80 42 152 99 l109 88 115 -55 c63 -31 148 -67 189 -80 40 -13 82 -27 94 -31 19 -7 22 -21 33 -130 14 -136 28 -194 61 -239 42 -60 48 -61 392 -61 l313 0 38 25 c50 34 75 87 87 187 16 126 27 196 34 206 3 6 43 22 88 36 76 25 182 70 272 116 l38 20 94 -73 c126 -97 166 -117 231 -117 89 0 123 24 325 228 150 150 188 195 197 227 22 81 7 155 -45 221 -16 20 -36 47 -45 60 -9 13 -27 36 -40 52 -62 70 -62 67 -20 151 36 71 101 250 101 277 0 24 27 32 140 44 153 15 198 26 237 56 62 47 63 51 63 393 0 362 -1 366 -84 408 -39 20 -79 28 -190 39 -82 8 -145 19 -152 27 -6 6 -24 50 -39 97 -15 47 -49 132 -76 189 l-49 103 100 125 c106 134 120 166 106 255 -11 67 -31 94 -198 261 -198 199 -216 213 -284 227 -88 19 -138 -2 -277 -114 l-118 -94 -62 28 c-34 16 -80 38 -102 49 -22 12 -78 33 -125 47 -102 31 -120 45 -120 93 0 77 -31 268 -50 306 -12 25 -34 48 -59 63 -39 22 -47 22 -348 22 -205 -1 -315 -4 -328 -12z"/>
 <path d="M5856 8501 c-4 -6 -40 -11 -86 -11 -43 0 -82 -4 -85 -10 -3 -5 -21 -10 -39 -10 -18 0 -41 -7 -52 -15 -10 -8 -29 -15 -41 -15 -12 0 -25 -4 -28 -10 -3 -5 -19 -10 -36 -10 -16 0 -29 -4 -29 -10 0 -5 -9 -10 -20 -10 -11 0 -20 -4 -20 -10 0 -5 -6 -10 -14 -10 -18 0 -76 -32 -76 -42 0 -5 -7 -8 -16 -8 -10 0 -39 -19 -65 -42 -26 -24 -65 -56 -85 -72 -20 -17 -43 -45 -52 -63 -9 -18 -19 -33 -23 -33 -9 0 -39 -58 -39 -76 0 -7 -5 -14 -12 -16 -18 -6 -15 -101 4 -130 12 -19 29 -27 64 -32 82 -11 1683 -7 1705 4 30 17 24 92 -12 155 -15 28 -32 59 -38 70 -5 12 -16 27 -25 34 -9 7 -16 20 -16 29 0 15 -26 41 -90 90 -19 15 -47 38 -62 51 -15 13 -37 29 -50 36 -13 6 -54 28 -91 48 -38 21 -79 37 -92 37 -13 0 -27 5 -30 10 -3 6 -19 10 -35 10 -15 0 -30 5 -32 11 -6 17 -81 31 -208 39 -63 4 -127 11 -141 15 -16 4 -29 3 -33 -4z"/>
 <path d="M5460 7735 c0 -3 11 -27 24 -53 14 -27 30 -77 37 -113 17 -86 17 -492 0 -578 -15 -80 -60 -170 -100 -204 -45 -37 -131 -66 -251 -84 -58 -8 -108 -18 -112 -21 -9 -9 -88 -214 -88 -229 0 -7 24 -44 54 -83 77 -99 100 -163 101 -275 0 -82 -3 -97 -33 -160 -29 -60 -58 -95 -210 -248 -190 -192 -238 -226 -344 -246 -109 -20 -214 12 -325 100 -77 60 -69 60 -235 -7 l-117 -47 -6 -56 c-22 -210 -75 -313 -184 -365 -65 -31 -69 -31 -243 -34 -98 -2 -178 -5 -178 -6 0 -39 180 -226 245 -256 23 -10 48 -26 55 -35 7 -8 23 -15 36 -15 12 0 26 -4 29 -10 3 -5 17 -10 31 -10 55 0 54 11 54 -504 0 -261 4 -477 9 -480 5 -3 11 -29 15 -58 20 -164 27 -206 45 -253 17 -42 31 -92 31 -108 0 -9 16 -46 35 -83 19 -36 35 -77 35 -90 0 -13 5 -24 10 -24 6 0 10 -6 10 -13 0 -21 30 -77 41 -77 5 0 9 -6 9 -14 0 -8 14 -40 30 -71 17 -31 30 -63 30 -70 0 -8 9 -20 21 -28 11 -8 30 -32 41 -53 36 -69 85 -138 127 -179 23 -21 41 -44 41 -50 0 -13 252 -265 266 -265 5 0 25 -16 44 -35 19 -19 39 -35 45 -35 6 0 24 -13 40 -30 16 -17 34 -30 40 -30 7 0 19 -8 29 -19 9 -10 36 -26 59 -36 23 -11 49 -24 57 -31 25 -20 151 -84 166 -84 8 0 14 -4 14 -10 0 -5 13 -10 29 -10 16 0 31 -3 33 -7 5 -12 111 -63 130 -63 9 0 20 -4 23 -10 3 -5 22 -10 40 -10 19 0 54 -11 79 -25 25 -14 56 -25 70 -25 14 0 28 -4 31 -10 3 -5 32 -10 64 -10 31 0 61 -4 67 -9 14 -14 112 -22 339 -27 130 -3 217 -1 230 5 11 6 49 13 85 15 133 11 185 18 194 27 6 5 22 9 36 9 14 0 35 7 46 15 10 8 27 15 37 15 9 0 17 5 17 10 0 6 13 10 29 10 17 0 33 5 36 10 3 6 17 10 30 10 13 0 27 5 30 10 3 6 17 10 31 10 13 0 32 4 42 10 32 17 171 80 178 80 4 0 21 11 38 24 17 13 63 39 102 59 38 19 76 42 83 51 8 9 18 16 23 16 5 0 23 13 41 30 18 16 37 30 43 30 6 0 23 14 38 30 15 17 38 35 51 40 14 5 25 16 25 25 0 8 6 15 14 15 16 0 198 183 225 226 11 16 33 42 50 57 17 16 31 35 31 42 0 7 16 28 35 46 19 19 35 39 35 45 0 6 7 17 15 24 9 7 23 29 32 49 9 20 26 50 38 66 26 36 125 237 125 254 0 6 5 20 10 31 6 11 15 29 20 40 6 11 10 29 10 39 0 11 5 23 10 26 6 3 10 19 10 35 0 15 7 30 15 34 8 3 15 16 15 30 0 14 5 28 10 31 6 3 10 19 10 36 0 16 5 29 10 29 6 0 10 31 10 74 0 41 5 78 10 81 6 3 10 26 10 50 0 24 5 47 10 50 6 4 10 176 10 482 0 441 1 477 18 489 9 7 24 14 33 14 15 0 84 29 124 52 11 7 34 18 50 27 39 19 173 150 181 176 4 11 17 33 30 48 35 42 64 113 74 184 4 34 12 68 17 75 4 7 10 400 13 873 l5 859 24 12 c44 22 161 147 161 172 0 13 6 30 14 38 19 18 30 127 21 195 -9 63 -34 115 -76 155 -17 16 -37 41 -45 57 -8 15 -21 27 -29 27 -8 0 -15 4 -15 8 0 13 -79 52 -105 52 -13 0 -25 7 -29 15 -4 12 -23 15 -84 15 -59 0 -83 -4 -92 -15 -7 -8 -21 -15 -31 -15 -11 0 -27 -4 -37 -9 -9 -5 -33 -16 -52 -25 -70 -30 -160 -152 -160 -216 0 -9 -7 -23 -15 -30 -11 -9 -15 -33 -15 -90 0 -57 4 -81 15 -90 8 -7 15 -20 15 -30 0 -49 93 -190 125 -190 6 0 21 -10 33 -23 22 -23 22 -24 22 -525 l0 -502 -22 0 c-13 0 -56 16 -95 37 l-73 37 0 287 c0 181 -4 290 -10 294 -5 3 -10 24 -10 45 0 21 -4 42 -10 45 -5 3 -10 24 -10 46 0 21 -4 39 -10 39 -5 0 -10 14 -10 30 0 17 -4 30 -10 30 -5 0 -10 14 -10 30 0 18 -6 33 -15 36 -8 4 -15 12 -15 20 0 13 -37 85 -49 94 -3 3 -19 30 -34 60 -16 30 -45 78 -65 107 -51 72 -223 243 -244 243 -10 0 -18 4 -18 8 0 5 -12 15 -27 23 -15 8 -35 22 -44 31 -10 9 -48 30 -86 47 -37 17 -75 35 -83 41 -52 33 -119 60 -146 60 -18 0 -36 5 -39 10 -3 6 -17 10 -30 10 -13 0 -27 5 -30 10 -3 6 -32 10 -64 10 -40 0 -63 5 -71 15 -11 13 -109 15 -771 15 -418 0 -759 -2 -759 -5z m946 -2244 c5 -5 20 -11 34 -13 35 -4 90 -110 72 -139 -7 -10 -12 -26 -12 -34 0 -8 -4 -15 -10 -15 -5 0 -10 -6 -10 -12 -1 -22 -69 -58 -108 -58 -74 0 -142 69 -142 144 0 67 66 133 136 135 16 1 34 -3 40 -8z m474 -1 c0 -5 5 -10 12 -10 16 0 58 -41 58 -57 0 -7 5 -13 10 -13 6 0 10 -20 10 -44 0 -25 -4 -48 -10 -51 -5 -3 -10 -14 -10 -23 0 -27 -77 -72 -123 -72 -59 0 -127 44 -127 82 0 10 -5 27 -12 37 -16 26 32 125 70 145 31 16 122 21 122 6z m425 0 c3 -5 16 -10 28 -10 12 -1 37 -14 56 -30 30 -25 35 -37 39 -85 4 -53 3 -56 -31 -88 -20 -18 -57 -38 -82 -46 -43 -13 -50 -12 -96 9 -27 13 -49 29 -49 37 0 7 -4 13 -10 13 -6 0 -10 30 -10 70 0 40 4 70 10 70 6 0 10 6 10 13 0 14 76 54 107 56 12 0 25 -3 28 -9z m-365 -1074 c25 -4 54 -11 65 -16 11 -4 47 -16 80 -25 33 -10 67 -24 76 -31 8 -8 21 -14 27 -14 18 0 132 -116 132 -134 0 -9 5 -16 10 -16 6 0 10 -7 10 -15 0 -8 9 -30 20 -50 11 -20 20 -44 20 -54 0 -10 6 -24 14 -30 22 -18 29 -82 29 -281 1 -197 -7 -273 -29 -291 -8 -6 -14 -29 -14 -50 0 -22 -4 -39 -10 -39 -5 0 -10 -16 -10 -35 0 -19 -4 -35 -10 -35 -5 0 -10 -10 -10 -23 0 -13 -9 -33 -20 -45 -11 -12 -20 -31 -20 -43 0 -11 -11 -30 -25 -41 -14 -11 -25 -28 -25 -39 0 -10 -4 -19 -8 -19 -8 0 -52 -75 -52 -89 0 -13 -111 -120 -130 -126 -10 -3 -20 -14 -23 -25 -3 -11 -16 -24 -29 -29 -12 -5 -34 -21 -47 -35 -24 -26 -75 -56 -93 -56 -5 0 -29 -16 -52 -35 -24 -19 -50 -35 -60 -35 -9 0 -16 -4 -16 -10 0 -5 -9 -10 -20 -10 -11 0 -20 -4 -20 -10 0 -5 -9 -10 -19 -10 -11 0 -23 -4 -26 -10 -3 -5 -19 -10 -36 -10 -16 0 -29 -4 -29 -10 0 -5 -9 -10 -20 -10 -12 0 -34 -7 -50 -15 -16 -8 -55 -19 -87 -25 -32 -5 -80 -14 -108 -20 -229 -50 -613 -50 -815 -1 -25 6 -83 17 -130 24 -57 8 -96 20 -117 35 -17 12 -43 22 -57 22 -14 0 -26 5 -26 10 0 6 -9 10 -20 10 -11 0 -20 5 -20 10 0 6 -9 10 -19 10 -11 0 -23 5 -26 10 -3 6 -15 10 -26 10 -10 0 -19 4 -19 9 0 10 -56 41 -74 41 -7 0 -18 9 -26 20 -8 11 -20 20 -28 20 -7 0 -30 16 -50 35 -20 19 -41 35 -46 35 -4 0 -39 32 -77 70 -38 39 -74 70 -79 70 -6 0 -10 9 -10 20 0 12 -11 32 -25 46 -14 14 -34 45 -45 69 -11 24 -25 47 -30 50 -15 9 -60 105 -60 126 0 10 -4 21 -10 24 -5 3 -10 24 -10 46 0 26 -5 42 -15 45 -8 4 -15 19 -15 34 0 16 -4 32 -10 35 -5 3 -10 28 -10 56 0 27 -4 49 -10 49 -6 0 -10 72 -10 195 0 123 4 195 10 195 6 0 10 21 11 48 0 28 8 59 19 77 11 17 33 59 51 95 31 63 99 140 123 140 6 0 18 9 26 20 8 11 44 29 85 41 38 11 80 25 93 30 13 5 40 9 62 9 21 0 42 5 45 10 7 12 1930 8 2005 -4z"/>
 <path d="M4781 3965 c-56 -30 -104 -77 -127 -126 -11 -21 -22 -39 -26 -39 -5 0 -8 -54 -8 -120 0 -73 4 -120 10 -120 6 0 10 -7 10 -16 0 -8 33 -47 73 -87 82 -81 118 -97 222 -97 62 0 135 23 135 42 0 4 7 8 15 8 20 0 89 63 115 105 29 47 50 122 50 180 0 38 -9 69 -37 127 -21 43 -43 78 -49 78 -6 0 -27 16 -47 35 -20 19 -43 35 -52 35 -8 0 -15 5 -15 10 0 6 -43 10 -112 9 -97 -1 -119 -4 -157 -24z"/>
 <path d="M6785 3980 c-3 -5 -15 -10 -26 -10 -10 0 -19 -4 -19 -10 0 -5 -19 -21 -41 -36 -23 -14 -44 -34 -46 -45 -3 -10 -9 -19 -14 -19 -5 0 -9 -7 -9 -15 0 -8 -9 -30 -20 -50 -16 -28 -20 -54 -20 -125 0 -53 4 -90 10 -90 6 0 10 -9 10 -20 0 -11 5 -20 10 -20 6 0 10 -8 10 -19 0 -23 81 -95 149 -132 43 -24 64 -29 119 -29 93 0 142 20 212 87 83 78 110 138 110 241 0 70 -4 87 -31 138 -35 67 -56 94 -75 94 -7 0 -24 11 -38 25 -14 14 -32 25 -41 25 -8 0 -15 5 -15 10 0 6 -45 10 -114 10 -66 0 -117 -4 -121 -10z"/>
 <path d="M5772 1628 c-8 -8 -12 -59 -12 -165 0 -169 -1 -172 -76 -208 -22 -10 -34 -23 -34 -35 0 -11 -6 -20 -13 -20 -17 0 -77 -73 -77 -94 0 -8 -4 -18 -10 -21 -5 -3 -10 -26 -10 -50 0 -24 -4 -47 -10 -50 -5 -3 -10 -28 -10 -55 0 -27 5 -52 10 -55 6 -3 10 -16 10 -28 0 -28 64 -154 93 -185 12 -13 40 -32 62 -42 22 -10 51 -28 64 -39 14 -12 38 -21 58 -21 18 0 33 -4 33 -10 0 -12 114 -13 138 -1 86 43 168 81 175 81 12 0 37 27 37 39 0 6 16 28 35 50 19 21 35 48 35 59 0 12 5 24 10 27 6 3 10 24 10 46 0 21 5 39 10 39 6 0 10 20 10 44 0 25 -4 48 -10 51 -5 3 -10 24 -10 45 0 21 -4 42 -10 45 -5 3 -10 16 -10 29 0 12 -12 33 -26 47 -14 13 -32 36 -40 52 -8 15 -20 27 -26 27 -6 0 -20 7 -30 17 -10 9 -28 21 -41 27 -21 11 -22 17 -25 176 -2 141 -5 167 -19 178 -23 17 -274 17 -291 0z"/>
 </g>

</svg>